<?xml version="1.0" standalone="no"?>
<!DOCTYPE svg PUBLIC "-//W3C//DTD SVG 20010904//EN"
 "http://www.w3.org/TR/2001/REC-SVG-20010904/DTD/svg10.dtd">
<svg version="1.0" xmlns="http://www.w3.org/2000/svg"
 width="1024.000000pt" height="1024.000000pt" viewBox="0 0 1024.000000 1024.000000"
 preserveAspectRatio="xMidYMid meet">

<g transform="translate(0.000000,1024.000000) scale(0.100000,-0.100000)"
fill="#000000" stroke="none">
<path d="M5590 7266 c-148 -33 -250 -139 -280 -293 -7 -35 -9 -82 -6 -107 11
-71 61 -159 121 -215 73 -66 133 -86 250 -85 111 1 163 22 240 95 209 197 115
530 -170 604 -69 17 -81 18 -155 1z"/>
<path d="M4382 6695 c-42 -20 -112 -83 -330 -297 -153 -150 -288 -288 -302
-307 -20 -27 -25 -45 -25 -91 0 -48 4 -63 25 -85 53 -56 126 -71 187 -37 35
18 129 92 347 271 200 164 227 181 290 181 50 0 273 -53 288 -68 9 -9 -34 -73
-266 -402 -76 -107 -146 -211 -156 -230 -40 -80 -34 -175 17 -251 43 -65 113
-112 607 -409 105 -63 202 -125 218 -139 19 -18 82 -145 198 -400 93 -206 182
-390 197 -409 61 -75 155 -94 230 -46 22 15 48 42 57 61 32 68 23 109 -115
534 -72 222 -138 417 -146 434 -51 101 -155 190 -505 438 -38 27 -68 50 -68
53 0 3 62 85 138 182 75 98 146 190 158 206 l21 29 69 -88 c167 -214 202 -253
259 -280 48 -24 64 -27 127 -23 64 3 101 15 293 93 261 105 363 150 387 172 9
8 25 34 33 58 21 54 8 110 -37 154 -58 57 -68 55 -397 -48 -170 -53 -211 -59
-248 -38 -27 15 -32 21 -193 252 -161 231 -206 285 -285 343 -134 99 -239 126
-770 192 -206 26 -238 25 -303 -5z"/>
<path d="M1863 5860 c-32 -19 -59 -82 -48 -111 2 -8 21 -142 40 -299 64 -517
128 -828 236 -1150 150 -451 398 -803 769 -1091 143 -112 235 -170 670 -424
323 -189 470 -292 733 -514 111 -92 249 -143 444 -162 119 -12 376 -9 389 4
15 15 8 417 -10 532 -91 582 -381 996 -886 1263 -142 75 -315 140 -621 236
-79 24 -223 70 -319 101 -228 73 -338 98 -417 93 -74 -5 -103 -25 -103 -74 0
-46 15 -81 62 -142 71 -91 171 -160 556 -382 176 -101 288 -183 336 -246 20
-26 36 -51 36 -55 0 -20 -62 -7 -122 24 -518 273 -689 379 -830 515 -139 134
-206 287 -168 386 8 21 1 38 -45 116 -59 101 -140 290 -179 420 -14 47 -48
177 -76 290 -114 460 -181 607 -302 668 -55 27 -103 28 -145 2z"/>
<path d="M8310 5701 c-161 -49 -320 -290 -536 -807 -35 -84 -88 -202 -118
-262 -52 -104 -54 -112 -44 -148 34 -125 -41 -281 -246 -508 -67 -73 -234
-227 -336 -307 -127 -100 -315 -219 -346 -219 -34 0 -5 38 124 161 242 234
520 519 572 587 133 177 135 288 5 307 -74 12 -143 -1 -230 -43 -83 -41 -131
-77 -380 -287 -180 -152 -304 -236 -570 -385 -244 -138 -315 -183 -426 -271
-281 -224 -457 -510 -526 -854 -14 -70 -18 -140 -18 -317 0 -124 3 -230 7
-234 14 -13 162 -17 263 -5 135 14 277 51 378 99 46 22 203 114 348 204 145
91 397 245 559 343 452 273 546 341 740 535 159 158 242 272 339 460 126 247
162 351 378 1100 233 808 213 723 186 791 -11 30 -25 45 -49 55 -37 15 -38 16
-74 5z"/>
<path d="M2395 5468 c41 -310 141 -658 254 -882 l66 -131 119 -3 c65 -1 163
-11 219 -22 55 -11 102 -18 103 -17 2 1 -24 24 -56 50 -170 136 -312 364 -460
737 -76 193 -105 239 -178 285 -31 19 -60 35 -65 35 -5 0 -6 -24 -2 -52z"/>
<path d="M4286 5233 c-32 -54 -74 -119 -92 -145 -54 -73 -75 -78 -439 -89
-442 -13 -466 -19 -512 -109 -29 -56 -29 -105 0 -160 42 -79 57 -83 497 -120
212 -18 415 -30 452 -27 91 6 162 42 231 116 58 63 267 343 267 358 0 5 -51
42 -112 83 -62 41 -139 100 -171 132 -32 32 -60 58 -61 58 -1 0 -28 -44 -60
-97z"/>
<path d="M7238 4893 c23 -2 61 -2 85 0 23 2 4 4 -43 4 -47 0 -66 -2 -42 -4z"/>
<path d="M7380 4890 c8 -5 30 -10 49 -10 45 0 37 6 -19 14 -31 4 -40 3 -30 -4z"/>
<path d="M7070 4880 c-10 -6 -2 -7 25 -3 49 7 58 13 19 13 -16 0 -36 -5 -44
-10z"/>
<path d="M6958 4863 c12 -2 30 -2 40 0 9 3 -1 5 -23 4 -22 0 -30 -2 -17 -4z"/>
<path d="M6898 4853 c6 -2 18 -2 25 0 6 3 1 5 -13 5 -14 0 -19 -2 -12 -5z"/>
<path d="M7560 4856 c0 -2 7 -9 15 -16 9 -7 15 -8 15 -2 0 5 -7 12 -15 16 -8
3 -15 4 -15 2z"/>
<path d="M6801 4839 c-24 -5 -46 -11 -50 -14 -6 -7 72 5 109 16 35 10 -2 9
-59 -2z"/>
<path d="M6718 4813 c7 -3 16 -2 19 1 4 3 -2 6 -13 5 -11 0 -14 -3 -6 -6z"/>
<path d="M7565 4809 c-4 -6 -5 -12 -2 -15 2 -3 7 2 10 11 7 17 1 20 -8 4z"/>
<path d="M6678 4803 c7 -3 16 -2 19 1 4 3 -2 6 -13 5 -11 0 -14 -3 -6 -6z"/>
<path d="M6615 4790 c-13 -5 -14 -9 -5 -9 8 0 24 4 35 9 13 5 14 9 5 9 -8 0
-24 -4 -35 -9z"/>
<path d="M7546 4765 c-9 -26 -7 -32 5 -12 6 10 9 21 6 23 -2 3 -7 -2 -11 -11z"/>
<path d="M6412 4723 c-24 -8 -41 -17 -39 -19 4 -5 97 26 97 32 0 6 -11 4 -58
-13z"/>
<path d="M7516 4695 c-9 -26 -7 -32 5 -12 6 10 9 21 6 23 -2 3 -7 -2 -11 -11z"/>
<path d="M6310 4680 c-8 -5 -10 -10 -5 -10 6 0 17 5 25 10 8 5 11 10 5 10 -5
0 -17 -5 -25 -10z"/>
<path d="M6260 4660 c-8 -5 -10 -10 -5 -10 6 0 17 5 25 10 8 5 11 10 5 10 -5
0 -17 -5 -25 -10z"/>
<path d="M7248 4633 c6 -2 18 -2 25 0 6 3 1 5 -13 5 -14 0 -19 -2 -12 -5z"/>
<path d="M7378 4633 c6 -2 18 -2 25 0 6 3 1 5 -13 5 -14 0 -19 -2 -12 -5z"/>
<path d="M7188 4623 c7 -3 16 -2 19 1 4 3 -2 6 -13 5 -11 0 -14 -3 -6 -6z"/>
<path d="M7110 4600 c-18 -12 -2 -12 25 0 13 6 15 9 5 9 -8 0 -22 -4 -30 -9z"/>
<path d="M6080 4570 c-9 -6 -10 -10 -3 -10 6 0 15 5 18 10 8 12 4 12 -15 0z"/>
<path d="M6889 4463 c-13 -16 -12 -17 4 -4 9 7 17 15 17 17 0 8 -8 3 -21 -13z"/>
<path d="M6800 4389 l-65 -61 68 57 c59 51 74 65 65 65 -2 0 -32 -28 -68 -61z"/>
<path d="M6061 4410 c0 -8 4 -22 9 -30 12 -18 12 -2 0 25 -6 13 -9 15 -9 5z"/>
<path d="M6081 4334 c0 -11 3 -14 6 -6 3 7 2 16 -1 19 -3 4 -6 -2 -5 -13z"/>
<path d="M6687 4295 c-15 -14 -24 -25 -19 -25 5 0 19 11 32 25 30 32 23 32
-13 0z"/>
<path d="M6091 4294 c0 -11 3 -14 6 -6 3 7 2 16 -1 19 -3 4 -6 -2 -5 -13z"/>
<path d="M6101 4254 c0 -11 3 -14 6 -6 3 7 2 16 -1 19 -3 4 -6 -2 -5 -13z"/>
<path d="M6615 4234 c-19 -15 -22 -21 -9 -15 18 9 52 41 43 41 -2 0 -17 -12
-34 -26z"/>
<path d="M6113 4155 c0 -38 2 -53 4 -32 2 20 2 52 0 70 -2 17 -4 1 -4 -38z"/>
<path d="M6559 4183 c-13 -16 -12 -17 4 -4 9 7 17 15 17 17 0 8 -8 3 -21 -13z"/>
<path d="M6514 4148 l-19 -23 23 19 c21 18 27 26 19 26 -2 0 -12 -10 -23 -22z"/>
<path d="M5337 4131 c-41 -26 -46 -36 -10 -17 17 9 35 20 38 26 8 13 6 12 -28
-9z"/>
<path d="M6455 4104 c-18 -16 -22 -22 -9 -15 18 9 53 42 43 41 -2 -1 -17 -12
-34 -26z"/>
<path d="M5264 4084 c-18 -14 -18 -15 4 -4 12 6 22 13 22 15 0 8 -5 6 -26 -11z"/>
<path d="M6364 4044 c-18 -14 -18 -15 4 -4 12 6 22 13 22 15 0 8 -5 6 -26 -11z"/>
<path d="M5540 3996 c0 -2 8 -10 18 -17 15 -13 16 -12 3 4 -13 16 -21 21 -21
13z"/>
<path d="M6061 3957 c-13 -21 -12 -21 5 -5 10 10 16 20 13 22 -3 3 -11 -5 -18
-17z"/>
<path d="M6197 3951 c-40 -26 -47 -36 -12 -18 42 23 62 37 50 36 -5 0 -22 -8
-38 -18z"/>
<path d="M5599 3927 c16 -20 71 -61 71 -54 0 3 -19 20 -42 38 -24 19 -37 26
-29 16z"/>
<path d="M6024 3908 l-19 -23 23 19 c21 18 27 26 19 26 -2 0 -12 -10 -23 -22z"/>
<path d="M4850 3865 c-14 -8 -20 -14 -15 -14 6 0 21 6 35 14 14 8 21 14 15 14
-5 0 -21 -6 -35 -14z"/>
<path d="M5813 3823 c9 -2 25 -2 35 0 9 3 1 5 -18 5 -19 0 -27 -2 -17 -5z"/>
<path d="M4690 3745 c13 -14 26 -25 28 -25 3 0 -5 11 -18 25 -13 14 -26 25
-28 25 -3 0 5 -11 18 -25z"/>
<path d="M4755 3680 c10 -11 20 -20 23 -20 3 0 -3 9 -13 20 -10 11 -20 20 -23
20 -3 0 3 -9 13 -20z"/>
<path d="M5740 3675 c-11 -13 -10 -14 4 -9 9 3 16 10 16 15 0 13 -6 11 -20 -6z"/>
<path d="M4800 3625 c13 -14 26 -25 28 -25 3 0 -5 11 -18 25 -13 14 -26 25
-28 25 -3 0 5 -11 18 -25z"/>
<path d="M5590 3549 c-30 -28 -41 -42 -25 -31 29 19 94 82 84 82 -2 0 -29 -23
-59 -51z"/>
<path d="M4845 3570 c10 -11 20 -20 23 -20 3 0 -3 9 -13 20 -10 11 -20 20 -23
20 -3 0 3 -9 13 -20z"/>
<path d="M4870 3536 c0 -2 8 -10 18 -17 15 -13 16 -12 3 4 -13 16 -21 21 -21
13z"/>
<path d="M4935 3446 c10 -14 19 -26 22 -26 7 0 -17 39 -28 46 -6 3 -3 -5 6
-20z"/>
<path d="M5479 3433 l-34 -38 38 34 c34 33 42 41 34 41 -2 0 -19 -17 -38 -37z"/>
<path d="M5400 3342 c-19 -26 -37 -49 -40 -52 -3 -3 -17 -23 -30 -45 -13 -22
-30 -50 -38 -62 -8 -13 -12 -23 -9 -23 3 0 20 24 37 53 18 28 53 78 77 110 24
33 43 61 40 63 -2 2 -19 -17 -37 -44z"/>
<path d="M5005 3330 c9 -16 18 -30 21 -30 2 0 -2 14 -11 30 -9 17 -18 30 -21
30 -2 0 2 -13 11 -30z"/>
<path d="M5040 3261 c0 -6 4 -13 10 -16 6 -3 7 1 4 9 -7 18 -14 21 -14 7z"/>
<path d="M5080 3185 c0 -5 5 -17 10 -25 5 -8 10 -10 10 -5 0 6 -5 17 -10 25
-5 8 -10 11 -10 5z"/>
<path d="M5130 3065 c0 -5 5 -17 10 -25 5 -8 10 -10 10 -5 0 6 -5 17 -10 25
-5 8 -10 11 -10 5z"/>
</g>
</svg>
