<?xml version="1.0" standalone="no"?>
<!DOCTYPE svg PUBLIC "-//W3C//DTD SVG 20010904//EN"
 "http://www.w3.org/TR/2001/REC-SVG-20010904/DTD/svg10.dtd">
<svg version="1.0" xmlns="http://www.w3.org/2000/svg"
 width="1024.000000pt" height="1040.000000pt" viewBox="0 0 1024.000000 1040.000000"
 preserveAspectRatio="xMidYMid meet">

<g transform="translate(0.000000,1040.000000) scale(0.100000,-0.100000)"
fill="#000000" stroke="none">
<path d="M4930 10129 c-78 -35 -189 -127 -375 -309 -99 -97 -277 -259 -395
-361 -358 -307 -621 -575 -703 -718 -36 -63 -46 -148 -47 -391 0 -263 38
-1111 55 -1210 12 -69 55 -511 61 -622 l7 -127 96 -18 c133 -25 332 -25 383 0
22 11 39 28 42 43 4 13 6 196 5 407 -1 473 2 498 96 689 73 151 101 240 184
593 33 138 73 288 89 335 17 47 51 144 77 215 88 246 110 411 67 507 -11 25
-24 48 -28 50 -5 3 -28 1 -52 -4 -97 -21 -161 -129 -268 -452 -87 -265 -120
-330 -184 -356 -48 -20 -76 -2 -94 61 -47 155 4 353 139 544 60 85 124 142
335 300 310 231 455 365 539 495 77 119 104 277 56 330 -22 25 -29 25 -85 -1z"/>
<path d="M5185 10126 c-57 -86 -3 -261 127 -415 87 -103 205 -205 462 -399
122 -91 242 -187 267 -213 92 -94 180 -251 215 -380 34 -131 12 -312 -41 -325
-33 -8 -60 2 -95 38 -45 44 -62 83 -146 330 -78 230 -115 317 -165 379 -33 42
-83 69 -129 69 -27 0 -34 -6 -50 -42 -14 -30 -20 -66 -20 -120 0 -123 29 -237
127 -498 32 -85 75 -231 105 -355 108 -452 151 -590 223 -720 73 -131 88 -266
78 -705 -3 -168 -3 -321 1 -341 10 -56 54 -73 196 -76 63 -1 133 2 155 6 22 5
72 14 110 21 l70 11 2 72 c5 151 15 280 39 502 24 234 47 536 59 790 4 77 8
160 10 185 7 127 4 653 -4 703 -26 155 -225 373 -763 840 -117 102 -279 250
-360 330 -175 172 -291 269 -373 308 -73 35 -80 36 -100 5z"/>
<path d="M3144 9808 c-196 -118 -324 -236 -389 -359 -33 -62 -59 -169 -41
-169 4 0 30 23 58 50 29 28 100 80 159 115 93 57 116 76 183 157 82 99 126
176 126 220 0 38 -13 36 -96 -14z"/>
<path d="M6942 9805 c6 -53 37 -103 133 -215 56 -66 89 -93 165 -139 52 -31
122 -82 156 -113 34 -32 64 -58 68 -58 11 0 7 44 -9 96 -20 67 -84 164 -153
234 -86 85 -313 240 -352 240 -9 0 -11 -12 -8 -45z"/>
<path d="M2652 9673 c-171 -124 -285 -437 -269 -733 5 -86 32 -257 42 -268 1
-1 33 29 71 69 38 39 128 116 201 170 166 125 296 270 394 437 46 79 48 90 12
65 -16 -11 -85 -47 -155 -81 -145 -70 -222 -135 -334 -278 -35 -45 -71 -87
-80 -95 -16 -13 -17 -12 -11 11 3 14 24 77 46 140 22 63 42 142 46 175 11 103
34 218 65 321 16 54 28 99 26 101 -1 2 -26 -14 -54 -34z"/>
<path d="M7470 9697 c0 -2 8 -28 19 -58 28 -84 59 -225 70 -325 6 -58 24 -132
51 -210 22 -65 43 -127 47 -136 13 -40 -18 -12 -92 82 -125 161 -182 208 -357
295 -84 41 -154 75 -155 75 -10 0 54 -108 104 -176 112 -150 189 -229 332
-338 77 -59 167 -136 200 -171 33 -36 62 -61 65 -57 2 4 11 46 20 92 46 260
20 484 -81 684 -42 86 -65 119 -117 174 -43 46 -106 86 -106 69z"/>
<path d="M5019 9382 c-48 -14 -101 -48 -118 -76 -28 -44 -43 -118 -42 -202 1
-87 17 -135 71 -214 52 -76 59 -114 32 -167 -22 -43 -33 -51 -127 -103 -95
-51 -121 -76 -152 -137 l-28 -58 -3 -734 c-3 -817 -7 -770 65 -790 21 -6 59
-11 84 -11 34 0 49 -5 53 -16 3 -9 6 -125 6 -258 0 -175 3 -245 12 -254 17
-17 429 -17 446 0 9 9 12 79 12 254 0 133 3 249 6 258 4 11 19 16 53 16 64 0
118 17 136 43 22 32 23 1427 0 1504 -25 83 -61 122 -164 178 -113 61 -146 98
-146 164 0 37 8 58 41 106 59 87 74 133 74 223 0 159 -53 249 -161 271 -54 11
-117 13 -150 3z"/>
<path d="M2221 9160 c-47 -73 -95 -216 -122 -370 -18 -94 -20 -138 -16 -240 7
-138 27 -268 58 -375 21 -72 107 -265 118 -265 3 0 17 28 30 62 33 87 96 188
163 267 156 179 217 275 273 429 19 53 49 125 65 160 l30 63 -82 -63 c-102
-77 -246 -214 -303 -289 -52 -67 -106 -164 -135 -241 -12 -32 -25 -58 -29 -58
-4 0 3 82 16 183 27 218 28 315 7 445 -10 56 -17 151 -17 225 1 70 -3 127 -8
127 -5 0 -27 -27 -48 -60z"/>
<path d="M7902 9098 c0 -68 -7 -166 -16 -218 -21 -126 -20 -228 5 -437 11 -96
19 -185 17 -196 -2 -14 -15 10 -36 65 -18 47 -55 121 -83 165 -60 92 -229 263
-347 352 l-83 63 25 -49 c13 -27 40 -94 59 -150 58 -167 121 -274 227 -388
108 -117 206 -269 235 -368 l12 -42 37 73 c126 250 174 601 118 865 -24 109
-55 210 -88 282 -23 48 -62 105 -73 105 -5 0 -8 -55 -9 -122z"/>
<path d="M1875 8399 c-17 -27 -17 -203 -1 -291 54 -284 233 -613 419 -765 28
-24 55 -43 59 -43 3 0 12 26 18 58 17 87 49 171 91 238 52 82 114 216 133 289
24 88 31 218 16 305 l-12 74 -19 -23 c-10 -12 -37 -57 -60 -99 -23 -42 -61
-111 -84 -152 -65 -113 -109 -273 -123 -450 l-7 -85 -27 45 c-14 25 -40 94
-58 155 -53 180 -116 333 -190 455 -84 141 -105 182 -129 250 -12 34 -21 48
-26 39z"/>
<path d="M8281 8369 c-17 -57 -63 -147 -117 -231 -24 -38 -52 -85 -63 -105
-30 -59 -115 -287 -155 -413 -20 -63 -45 -126 -56 -140 l-20 -25 -1 60 c-3
210 -83 432 -252 699 -30 47 -31 48 -40 25 -5 -13 -11 -71 -14 -129 -8 -168
29 -297 137 -480 57 -97 87 -171 101 -250 15 -82 15 -83 41 -69 50 26 164 149
229 247 165 247 262 535 246 736 -3 39 -9 82 -14 95 -9 21 -10 20 -22 -20z"/>
<path d="M2610 7647 c0 -18 -9 -67 -20 -108 -79 -284 -90 -561 -29 -681 14
-27 19 -54 17 -86 l-3 -47 -27 46 c-64 109 -161 225 -322 384 -170 168 -211
217 -261 310 -29 56 -32 41 -11 -67 53 -274 255 -582 484 -737 62 -42 197
-111 217 -111 16 0 67 321 73 457 6 149 -11 341 -43 484 -20 94 -56 189 -70
189 -3 0 -5 -15 -5 -33z"/>
<path d="M7552 7668 c-58 -73 -107 -386 -100 -645 4 -163 53 -473 74 -473 25
0 192 92 256 140 180 136 335 359 412 590 19 58 38 132 41 165 l7 60 -38 -63
c-51 -84 -115 -157 -258 -293 -130 -125 -204 -210 -288 -336 -54 -81 -56 -82
-61 -53 -7 32 -4 44 24 105 48 104 41 371 -16 600 -19 77 -35 157 -37 178 -2
42 -2 41 -16 25z"/>
<path d="M2843 6764 c11 -253 45 -393 148 -615 33 -69 59 -131 59 -138 0 -20
-66 -7 -106 21 -18 13 -89 76 -159 140 -82 77 -172 148 -257 204 -103 68 -158
114 -258 214 l-127 128 4 -47 c20 -205 198 -481 392 -606 141 -91 248 -134
425 -170 88 -18 181 -40 205 -49 l43 -16 -6 33 c-3 17 -19 133 -35 257 -38
279 -48 317 -117 458 -56 113 -181 313 -205 327 -10 7 -11 -23 -6 -141z"/>
<path d="M7302 6872 c-69 -87 -186 -294 -231 -409 -25 -65 -50 -207 -77 -453
-7 -69 -15 -122 -20 -152 l-5 -27 57 19 c31 11 107 30 168 41 193 37 295 77
444 173 193 124 368 393 397 609 l6 47 -128 -128 c-97 -97 -157 -147 -248
-207 -134 -88 -147 -98 -293 -233 -121 -113 -161 -141 -208 -149 -48 -8 -45 7
25 157 71 150 97 224 122 350 18 91 38 400 26 400 -3 0 -19 -17 -35 -38z"/>
<path d="M3229 6328 c17 -29 51 -125 76 -213 26 -88 61 -187 78 -220 43 -83
170 -207 294 -288 56 -37 105 -72 109 -79 11 -18 -54 -4 -256 58 -103 31 -285
75 -410 100 -239 47 -336 75 -439 130 -36 18 -66 32 -68 30 -2 -1 19 -34 45
-72 110 -156 325 -288 570 -350 117 -30 211 -31 367 -4 167 29 355 76 355 90
0 4 -23 35 -51 70 -71 89 -119 162 -168 257 -87 167 -445 543 -518 543 -9 0
-4 -17 16 -52z"/>
<path d="M6904 6349 c-59 -38 -231 -209 -337 -337 -43 -52 -96 -130 -119 -175
-49 -98 -102 -177 -175 -264 -30 -36 -53 -66 -51 -68 10 -10 245 -65 357 -84
163 -28 255 -27 372 3 190 49 356 135 475 248 63 60 134 151 134 171 0 4 -36
-11 -79 -33 -113 -58 -173 -76 -360 -111 -199 -36 -312 -64 -529 -130 -162
-49 -209 -58 -197 -39 3 5 52 40 108 77 56 38 136 102 178 143 94 92 136 170
185 348 20 70 53 162 74 205 21 44 33 77 26 77 -7 0 -34 -14 -62 -31z"/>
<path d="M4400 5403 c-281 -21 -493 -62 -736 -142 -193 -64 -311 -86 -420 -79
-44 3 -64 0 -64 -7 0 -77 414 -146 695 -116 155 17 257 41 473 111 265 87 365
110 507 117 l120 5 -136 -69 c-164 -83 -307 -183 -430 -300 l-91 -87 40 -20
41 -19 124 119 c187 181 339 282 505 335 l73 23 86 -29 c159 -54 330 -173 511
-355 l97 -98 38 19 c36 19 37 20 22 43 -20 29 -125 123 -225 200 -87 67 -223
149 -330 200 l-75 34 81 1 c135 2 237 -21 554 -124 264 -85 422 -115 618 -115
200 0 465 50 514 97 16 15 28 30 28 34 0 3 -31 4 -69 1 -104 -7 -218 14 -401
73 -355 116 -582 151 -960 149 -175 -1 -313 -19 -443 -58 -42 -13 -53 -12
-137 10 -174 45 -402 63 -610 47z"/>
<path d="M6755 4340 c-92 -15 -192 -48 -280 -93 -118 -61 -244 -190 -309 -315
-26 -51 -59 -136 -73 -190 -23 -85 -26 -118 -26 -262 -1 -183 11 -253 63 -389
60 -155 179 -298 316 -379 238 -141 592 -156 836 -37 224 110 373 326 391 568
l3 47 -252 0 -253 0 -16 -57 c-24 -83 -49 -126 -95 -165 -96 -83 -251 -77
-354 13 -85 75 -129 207 -129 389 0 184 43 312 132 393 57 51 104 67 193 67
117 0 210 -68 249 -182 l18 -53 249 -3 250 -2 -5 42 c-8 64 -50 203 -77 256
-39 78 -112 168 -169 211 -70 53 -183 104 -277 126 -88 20 -299 28 -385 15z"/>
<path d="M652 3718 c4 -572 5 -596 26 -671 81 -292 276 -425 662 -452 101 -7
284 8 378 31 175 42 319 148 387 287 70 141 73 180 74 825 l1 572 -257 0 -258
0 0 -538 c0 -486 -2 -542 -18 -594 -33 -109 -111 -167 -223 -168 -128 0 -206
55 -238 169 -14 50 -16 130 -16 594 l0 537 -261 0 -260 0 3 -592z"/>
<path d="M2490 3470 l0 -840 245 0 245 0 2 460 3 461 56 -98 c30 -54 147 -261
259 -460 l203 -363 249 0 248 0 0 840 0 840 -240 0 -240 0 0 -452 c0 -264 -4
-448 -9 -442 -13 13 -481 876 -481 886 0 4 -121 8 -270 8 l-270 0 0 -840z"/>
<path d="M4325 3470 l0 -840 258 0 257 0 0 335 0 335 243 -2 242 -3 0 -333 0
-332 258 0 257 0 0 840 0 840 -257 0 -258 0 3 -290 3 -290 -246 0 -245 0 0
290 0 290 -257 0 -258 0 0 -840z"/>
<path d="M7895 3471 l0 -841 258 0 257 0 0 296 0 295 173 -3 c151 -3 177 -6
212 -24 79 -41 106 -109 129 -332 9 -78 21 -162 27 -187 l11 -45 258 0 257 0
-18 53 c-10 31 -24 126 -33 228 -10 106 -24 201 -36 241 -28 91 -88 180 -149
220 -28 18 -51 35 -51 38 0 3 16 14 35 24 45 24 117 101 143 152 41 81 54 150
51 268 -4 106 -6 116 -42 188 -59 120 -160 200 -308 245 -46 14 -132 17 -614
20 l-560 4 0 -840z m930 414 c55 -28 85 -76 85 -137 0 -77 -39 -133 -110 -157
-40 -14 -324 -27 -364 -17 l-26 6 0 166 0 166 188 -4 c163 -3 192 -6 227 -23z"/>
<path d="M3075 2159 c-373 -50 -635 -307 -695 -683 -8 -48 -11 -132 -7 -233 4
-131 9 -173 31 -246 87 -292 281 -482 571 -557 118 -31 301 -35 425 -9 311 65
544 313 575 612 l7 67 -254 0 -255 0 -12 -54 c-18 -79 -67 -155 -125 -190 -94
-58 -237 -45 -324 30 -140 120 -177 477 -72 691 54 109 142 163 264 163 118 0
218 -76 254 -190 l17 -55 248 0 249 0 -7 55 c-20 158 -109 338 -215 433 -66
60 -209 130 -310 152 -91 20 -270 27 -365 14z"/>
<path d="M968 1288 l-316 -843 231 -3 c133 -1 233 2 236 7 3 5 28 73 55 150
l50 141 285 0 286 0 51 -148 51 -147 237 -3 c223 -2 237 -1 232 15 -4 10 -145
389 -315 843 l-309 825 -229 3 -229 2 -316 -842z m632 67 c46 -146 81 -267 78
-270 -3 -3 -82 -4 -176 -3 l-170 3 86 268 c48 147 89 267 92 267 3 0 44 -119
90 -265z"/>
<path d="M4230 1290 l0 -840 243 0 242 0 -3 462 c-1 291 1 459 7 453 5 -6 60
-100 122 -210 61 -110 149 -265 194 -345 45 -80 109 -193 141 -252 l59 -108
253 0 252 0 0 840 0 840 -245 0 -245 0 -2 -450 -3 -450 -86 157 c-47 87 -157
290 -245 451 l-159 292 -262 0 -263 0 0 -840z"/>
<path d="M6063 1543 c4 -560 5 -592 25 -670 52 -202 165 -330 350 -400 190
-71 500 -81 711 -22 221 61 352 189 417 406 16 52 18 125 21 666 l4 607 -255
0 -256 0 0 -517 c0 -562 -5 -619 -54 -694 -38 -56 -86 -81 -170 -87 -129 -8
-202 30 -247 130 l-24 53 -3 558 -3 557 -260 0 -261 0 5 -587z"/>
<path d="M7940 1290 l0 -840 260 0 260 0 0 296 0 296 173 -4 c165 -3 174 -4
217 -30 76 -44 100 -105 120 -303 10 -101 24 -194 36 -237 5 -17 26 -18 260
-18 140 0 254 3 254 8 0 4 -7 29 -15 57 -9 27 -22 125 -30 218 -11 125 -22
188 -42 249 -36 110 -98 191 -178 232 l-26 14 44 25 c53 31 118 101 146 156
48 92 66 257 42 364 -29 124 -120 234 -245 293 -125 60 -169 63 -753 64 l-523
0 0 -840z m937 412 c24 -12 50 -34 59 -48 24 -36 29 -112 11 -155 -35 -85
-123 -112 -347 -107 l-135 3 -3 168 -2 169 187 -4 c171 -3 192 -5 230 -26z"/>
</g>
</svg>
